HIERARCHY
ROOT pelvis
{
  OFFSET 0 100 0
  CHANNELS 6 Xposition Yposition Zposition Zrotation Xrotation Yrotation
  JOINT pelvis_right_femur
  {
    OFFSET -10.78128 -3.44521 -0.5502486
    CHANNELS 3 Zrotation Xrotation Yrotation
    JOINT right_femur_tibia
    {
      OFFSET -0.8047443 -44.0398 -0.1307829
      CHANNELS 3 Zrotation Xrotation Yrotation
      JOINT right_tibia_foot
      {
        OFFSET 3.006224 -47.83518 -5
        CHANNELS 3 Zrotation Xrotation Yrotation
        End Site
        {
          OFFSET 0 -5 15
        }
      }
    }
  }
  JOINT pelvis_left_femur
  {
    OFFSET 10.78128 -3.44521 -0.5502486
    CHANNELS 3 Zrotation Xrotation Yrotation
    JOINT left_femur_tibia
    {
      OFFSET 0.8047443 -44.0398 -0.1307829
      CHANNELS 3 Zrotation Xrotation Yrotation
      JOINT left_tibia_foot
      {
        OFFSET -4.370144 -48.10324 -4.275266
        CHANNELS 3 Zrotation Xrotation Yrotation
        End Site
        {
          OFFSET 0 -5 15
        }
      }
    }
  }
  JOINT pelvis_spine1
  {
    OFFSET 0 6.468898 -3.129235
    CHANNELS 3 Zrotation Xrotation Yrotation
    JOINT spine1
    {
      OFFSET 0 23.15396 4.99043
      CHANNELS 3 Zrotation Xrotation Yrotation
      JOINT spine2
      {
        OFFSET 0 20.79997 -5.064912
        CHANNELS 3 Zrotation Xrotation Yrotation
        JOINT neck
        {
          OFFSET 0 14.38658 9.616178
          CHANNELS 3 Zrotation Xrotation Yrotation
          End Site
          {
            OFFSET 0 20 0
          }
        }
      }
      JOINT right_manubrium
      {
        OFFSET -5.722621 16.35077 3.967754
        CHANNELS 3 Zrotation Xrotation Yrotation
        JOINT right_clavicle
        {
          OFFSET -13.16364 1.694482 -4.693211
          CHANNELS 3 Zrotation Xrotation Yrotation
          JOINT right_humerus
          {
            OFFSET -28.5034 -0.3100689 -2.792744
            CHANNELS 3 Zrotation Xrotation Yrotation
            JOINT right_radius
            {
              OFFSET -25.15693 0.02248979 -1.271978
              CHANNELS 3 Zrotation Xrotation Yrotation
              End Site
              {
                OFFSET -15 0 0
              }
            }
          }
        }
      }
      JOINT left_manubrium
      {
        OFFSET 5.722621 16.35077 3.967754
        CHANNELS 3 Zrotation Xrotation Yrotation
        JOINT left_clavicle
        {
          OFFSET 13.16364 1.694482 -4.693211
          CHANNELS 3 Zrotation Xrotation Yrotation
          JOINT left_humerus
          {
            OFFSET 29.39168 -1.063119 -2.237045
            CHANNELS 3 Zrotation Xrotation Yrotation
            JOINT left_radius
            {
              OFFSET 24.59957 -0.9528479 0.9047498
              CHANNELS 3 Zrotation Xrotation Yrotation
              End Site
              {
                OFFSET 15 -0 -0
              }
            }
          }
        }
      }
    }
  }
}
MOTION
Frames: 7
Frame Time: 0.0416666666667
0 103.5113 0 1.865422 -0.1208708 0.09700844 3.200014 -17.1088 10.62562 -0 38.16335 -0 -4.999717 -17.38238 -2.622449 -8.21185 9.726787 -23.56901 -0 5.874425 -0 20.29264 -8.90693 30.04341 -4.537025 -3.502181 5.198022 2.961911 10.98765 -6.910477 2.001574 22.39695 5.477504 1.90835 -25.61415 9.983128 6.660119 -21.17358 11.68837 86.36329 40.34067 -17.4101 -0 0 14.59444 -5.614528 8.161945 6.015702 2.703347 -16.75525 -4.362853 -90.86645 22.80132 20.23629 0 0 -17.41629 15.15817 11.65542 -1.757438
0.3697269 104.2244 1.76405 1.777516 -0.1875384 0.182615 3.28262 -18.053 10.31904 -0 37.77502 -0 -5.420332 -16.03764 -2.572567 -8.114546 9.656735 -22.88766 -0 5.813013 -0 20.35646 -9.10181 29.67625 -4.515081 -3.134455 5.099349 3.031737 11.21517 -7.047729 1.902633 22.22483 5.479352 2.119648 -25.56586 9.617639 6.704337 -21.20504 11.76209 86.29253 40.2204 -17.38158 -0 0 14.3759 -5.808958 7.6719 6.289886 2.714345 -17.01168 -4.709224 -90.47246 22.23139 19.89716 0 0 -17.66882 15.31741 11.01458 -1.931528
0.6726014 104.6782 3.318812 1.620035 -0.1240678 0.2069404 3.260026 -17.89387 10.50466 -0 36.76105 -0 -4.717698 -17.69238 -3.055332 -7.871588 10.33165 -23.48796 -0 4.602656 -0 16.913 -11.69059 29.39281 -4.141233 -3.708039 5.330783 2.805093 10.31867 -7.180176 1.985626 22.39529 5.564494 1.938648 -25.77054 9.967839 5.861262 -20.98369 11.34027 86.58224 38.04574 -18.28502 -0 0 15.18052 -5.495727 7.558593 5.106177 3.799714 -17.59229 -3.430593 -91.62018 24.12653 20.77737 0 0 -17.53185 13.6374 13.54208 -0.2345841
0.9416284 104.9626 4.844844 1.321847 -0.0383342 0.1951885 3.47544 -18.79529 10.33215 -0 35.74696 -0 -4.764735 -17.36428 -3.305512 -7.541812 10.67407 -23.25312 -0 4.021591 -0 14.26962 -13.91388 28.70856 -3.840978 -3.75509 5.33962 2.700092 9.875734 -7.412021 1.940915 22.29071 5.739096 2.094365 -25.86899 9.940212 5.462624 -20.74938 11.14797 86.6379 36.62335 -18.87299 -0 0 15.54976 -5.613838 7.370737 4.502646 4.689621 -18.35147 -2.660815 -92.20653 25.01279 21.11459 0 0 -17.49026 12.43177 14.91498 0.9364642
1.184102 105.1308 6.404793 0.9420382 0.1544935 0.1632734 3.84117 -20.04515 10.07127 -0 34.62141 -0 -4.990731 -16.55218 -3.432665 -7.171597 10.90427 -22.84592 -0 3.761686 -0 11.76848 -16.10582 27.87443 -3.548518 -3.701283 5.281343 2.625379 9.523253 -7.65541 1.874957 22.08183 5.987929 2.349197 -25.96648 9.902184 5.243375 -20.46583 11.03128 86.59727 35.50506 -19.35379 -0 0 15.84895 -5.906577 7.40586 4.021801 5.604276 -19.1789 -1.882523 -92.71752 25.57648 21.31421 0 0 -17.35319 11.42773 16.09691 1.84416
1.408474 105.1996 8.084308 0.5237792 0.452815 0.1382677 4.315938 -21.79231 9.660824 -0 33.01782 -0 -5.334754 -15.19479 -3.413693 -6.779387 11.11783 -22.21111 -0 3.703968 -0 9.557944 -18.22303 26.82489 -3.299063 -3.488506 5.138773 2.628724 9.268955 -7.912475 1.792991 21.77081 6.264615 2.672945 -26.10518 9.818466 5.12893 -20.15698 10.97636 86.50079 34.61582 -19.74702 -0 0 15.99438 -6.333473 7.506786 3.7556 6.445882 -19.99453 -1.225547 -93.00857 25.80387 21.26056 0 0 -17.31682 10.63138 16.87326 2.491579
1.619915 105.184 9.962065 0.08295477 0.8678216 0.1514895 4.872147 -23.91568 9.130717 -0 30.92006 -0 -5.72132 -13.49438 -3.255586 -6.374869 11.37669 -21.43818 -0 3.840554 -0 7.562312 -20.25839 25.56443 -3.090898 -3.169726 4.917062 2.708557 9.060158 -8.169019 1.707034 21.38538 6.564187 3.025992 -26.30356 9.738111 5.078484 -19.81007 10.96121 86.38088 33.91236 -20.08505 -0 0 16.00163 -6.856539 7.702055 3.665476 7.201317 -20.75186 -0.6515566 -93.12436 25.80416 20.99039 0 0 -17.3804 9.983904 17.3286 2.93424
